<?xml version="1.0" standalone="no"?>
<!DOCTYPE svg PUBLIC "-//W3C//DTD SVG 20010904//EN"
 "http://www.w3.org/TR/2001/REC-SVG-20010904/DTD/svg10.dtd">
<svg version="1.0" xmlns="http://www.w3.org/2000/svg"
 width="600.000000pt" height="600.000000pt" viewBox="0 0 600.000000 600.000000"
 preserveAspectRatio="xMidYMid meet">
<metadata>
Created by potrace 1.11, written by Peter Selinger 2001-2013
</metadata>
<g transform="translate(0.000000,600.000000) scale(0.100000,-0.100000)"
fill="#000000" stroke="none">
<path d="M3349 5250 c-759 -49 -1531 -429 -2036 -1003 -226 -257 -357 -455
-507 -768 -179 -374 -286 -764 -342 -1250 -21 -181 -33 -1309 -15 -1370 14
-45 67 -94 118 -108 53 -15 4813 -15 4865 -1 48 14 97 55 114 97 11 25 14 113
14 404 l0 372 -25 43 c-41 70 -77 81 -295 88 -588 18 -1061 145 -1425 383
-132 87 -318 273 -393 395 -134 217 -205 490 -187 718 22 286 121 525 281 683
108 105 192 141 329 141 106 0 170 -20 278 -90 178 -116 256 -255 299 -537 8
-54 12 -212 13 -472 0 -385 0 -391 23 -440 28 -61 46 -82 97 -108 248 -131
686 335 824 878 74 288 48 651 -67 935 -121 300 -363 569 -667 742 -356 202
-822 298 -1296 268z m366 -340 c631 -54 1104 -349 1284 -802 89 -221 109 -508
51 -730 -39 -149 -109 -297 -206 -434 -77 -108 -73 -118 -73 173 1 415 -38
619 -159 839 -78 142 -266 306 -443 388 -136 63 -181 71 -404 71 -208 -1 -301
-10 -492 -51 -675 -143 -1264 -606 -1583 -1243 -308 -617 -332 -1342 -64
-1951 19 -43 34 -81 34 -84 0 -3 -198 -6 -441 -6 l-441 0 5 508 c4 531 10 620
58 892 98 551 310 1036 625 1430 94 117 299 321 420 417 529 419 1208 636
1829 583z m-724 -1192 c-69 -187 -86 -296 -86 -538 0 -176 3 -220 23 -312 159
-741 794 -1248 1756 -1403 136 -22 365 -45 441 -45 101 0 95 11 95 -176 l0
-164 -743 0 c-691 0 -749 1 -842 19 -549 106 -958 473 -1111 999 -51 178 -67
308 -61 517 3 118 11 220 22 270 45 218 141 444 260 615 57 82 235 270 255
270 5 0 1 -24 -9 -52z m-717 -370 c-151 -353 -193 -788 -114 -1181 84 -412
307 -783 630 -1049 l45 -37 -396 -1 -396 0 -65 138 c-104 218 -151 368 -184
592 -20 139 -15 467 9 595 54 286 159 550 310 777 66 99 181 248 192 248 3 0
-12 -37 -31 -82z"/>
</g>
</svg>
